<?xml version="1.0" standalone="no"?>
<!DOCTYPE svg PUBLIC "-//W3C//DTD SVG 20010904//EN"
 "http://www.w3.org/TR/2001/REC-SVG-20010904/DTD/svg10.dtd">
<svg version="1.0" xmlns="http://www.w3.org/2000/svg"
 width="1202.000000pt" height="1211.000000pt" viewBox="0 0 1202.000000 1211.000000"
 preserveAspectRatio="xMidYMid meet">

<g transform="translate(0.000000,1211.000000) scale(0.100000,-0.100000)"
fill="#000000" stroke="none">
<path d="M5700 11695 c-1124 -81 -2151 -464 -3020 -1126 -485 -369 -1037 -969
-1372 -1489 -206 -320 -405 -719 -538 -1075 -175 -470 -277 -911 -342 -1470
-18 -150 -17 -837 0 -1005 123 -1173 570 -2241 1307 -3120 623 -743 1441
-1313 2396 -1670 355 -133 731 -226 1144 -284 272 -38 452 -50 760 -50 865 0
1670 190 2455 580 564 280 1025 611 1459 1045 607 606 1016 1236 1316 2024
171 451 276 915 330 1459 22 219 30 675 16 891 -59 898 -334 1776 -809 2580
-417 705 -1027 1347 -1722 1812 -987 659 -2204 983 -3380 898z m876 -465 c431
-45 885 -153 1289 -306 546 -206 1048 -509 1520 -916 134 -116 420 -407 534
-543 740 -886 1179 -1955 1262 -3076 15 -203 6 -705 -16 -899 -54 -485 -177
-973 -354 -1415 -70 -172 -251 -540 -341 -690 -370 -619 -849 -1151 -1414
-1569 -451 -334 -952 -589 -1501 -763 -767 -242 -1562 -304 -2308 -178 -524
88 -991 236 -1452 459 -1064 515 -1914 1365 -2431 2431 -117 240 -169 368
-254 625 -177 528 -257 990 -267 1530 -11 614 70 1147 263 1727 89 269 169
461 304 728 163 324 291 533 485 790 376 499 790 894 1280 1220 767 510 1618
796 2575 865 190 13 606 4 826 -20z"/>
<path d="M5785 11100 c-669 -33 -1378 -221 -1992 -529 -711 -355 -1286 -839
-1775 -1492 -438 -585 -759 -1280 -906 -1962 -64 -293 -90 -474 -113 -762 -17
-211 -6 -661 20 -885 155 -1308 782 -2478 1781 -3325 385 -325 907 -641 1360
-820 885 -351 1774 -452 2654 -304 987 166 1839 582 2590 1265 428 389 843
938 1103 1459 351 700 525 1403 540 2171 8 399 -19 701 -97 1084 -254 1251
-932 2350 -1915 3105 -436 334 -881 571 -1405 745 -596 199 -1201 281 -1845
250z m-1445 -2449 l0 -40 -57 -6 c-213 -25 -300 -95 -319 -257 -14 -120 11
-200 231 -753 90 -225 199 -502 243 -615 44 -113 128 -326 187 -475 149 -377
132 -335 358 -915 292 -750 400 -1021 404 -1017 2 2 39 107 82 233 44 126 107
306 141 399 34 94 88 244 120 335 127 362 600 1675 725 2015 97 264 134 407
142 545 17 319 -117 471 -447 505 -35 3 -67 8 -70 10 -3 2 -4 20 -2 39 l4 36
827 0 c820 0 999 -5 1196 -36 594 -92 990 -380 1128 -819 41 -131 52 -218 51
-390 -1 -187 -27 -324 -90 -473 -130 -308 -414 -556 -809 -710 -100 -38 -240
-81 -267 -82 -10 0 -18 -4 -18 -8 0 -4 48 -16 107 -26 201 -34 497 -137 666
-232 417 -236 660 -549 723 -930 21 -128 14 -343 -15 -459 -58 -235 -154 -413
-315 -583 -220 -232 -504 -381 -896 -471 -296 -67 -238 -64 -1605 -68 l-1241
-4 -2 34 -2 33 87 11 c251 32 364 148 414 423 7 39 14 245 18 510 l7 445 48
125 c26 69 96 260 156 425 103 283 232 640 266 731 l15 41 462 6 c254 3 500
11 547 17 203 25 419 98 555 188 246 162 405 457 446 828 23 216 -3 512 -61
683 -86 256 -266 446 -513 541 -215 84 -495 115 -635 71 -247 -76 -427 -377
-740 -1236 -77 -210 -147 -403 -336 -925 -46 -129 -153 -419 -236 -645 -83
-225 -193 -525 -245 -665 -51 -140 -183 -496 -293 -790 -110 -294 -226 -606
-258 -693 l-58 -157 -31 0 c-30 0 -34 4 -55 63 -71 195 -667 1684 -1002 2502
-276 672 -423 1033 -511 1250 -191 472 -363 878 -423 998 -60 119 -112 193
-177 253 -91 84 -171 118 -329 139 -46 6 -48 7 -48 39 0 18 3 36 7 39 3 4 397
7 875 7 l868 0 0 -39z"/>
<path d="M6700 5013 c0 -611 4 -1045 10 -1086 33 -230 125 -312 405 -365 130
-24 561 -24 695 1 309 57 506 146 674 307 99 95 153 170 217 304 78 163 109
301 116 511 9 284 -25 473 -122 670 -149 305 -386 495 -748 599 -210 61 -382
76 -869 76 l-378 0 0 -1017z"/>
</g>
</svg>
